<?xml version="1.0" standalone="no"?>
<!DOCTYPE svg PUBLIC "-//W3C//DTD SVG 20010904//EN"
 "http://www.w3.org/TR/2001/REC-SVG-20010904/DTD/svg10.dtd">
<svg version="1.0" xmlns="http://www.w3.org/2000/svg"
 width="300.000000pt" height="300.000000pt" viewBox="0 0 300.000000 300.000000"
 preserveAspectRatio="xMidYMid meet">
<metadata>
Created by potrace 1.10, written by Peter Selinger 2001-2011
</metadata>
<g transform="translate(0.000000,300.000000) scale(0.100000,-0.100000)"
fill="#000000" stroke="none">
<path d="M2158 2353 c-142 -198 -254 -391 -299 -514 -28 -75 -31 -93 -27 -170
3 -68 10 -97 31 -142 43 -87 107 -151 195 -194 71 -36 82 -38 167 -38 85 0 96
2 167 38 179 88 266 279 213 463 -20 70 -95 222 -166 336 -81 132 -201 298
-214 298 -6 0 -37 -35 -67 -77z m257 -286 c43 -70 93 -164 113 -210 32 -72 36
-92 37 -167 0 -74 -4 -93 -29 -145 -108 -219 -384 -267 -554 -97 -92 91 -124
228 -82 352 31 93 107 231 222 408 l101 152 58 -82 c32 -46 92 -140 134 -211z"/>
<path d="M2419 1639 c-18 -33 -54 -80 -81 -104 -52 -47 -62 -75 -25 -75 51 0
191 180 174 223 -12 32 -36 17 -68 -44z"/>
<path d="M745 2128 c-3 -7 48 -352 113 -766 92 -583 123 -757 136 -770 15 -16
59 -17 501 -17 445 0 486 1 502 17 12 13 29 93 64 315 42 261 46 300 34 313
-33 32 -40 3 -98 -398 -2 -10 -100 -13 -496 -12 -272 0 -497 3 -499 5 -3 3
-38 212 -78 465 -40 254 -75 468 -78 476 -3 9 -3 14 1 12 91 -46 134 -61 187
-65 89 -8 164 11 238 59 103 67 134 78 224 78 82 0 127 -15 211 -70 29 -19 54
0 37 28 -20 31 -113 80 -179 92 -107 20 -197 -2 -313 -78 -72 -47 -151 -67
-223 -58 -56 8 -88 20 -150 60 l-46 29 -11 86 c-7 47 -15 103 -18 124 l-7 37
546 0 c561 0 563 0 550 38 -7 18 -1141 18 -1148 0z m1231 -1417 c-3 -24 -6
-52 -6 -62 0 -18 -18 -19 -469 -19 -259 0 -472 3 -474 8 -3 4 -8 32 -12 62
l-7 55 487 0 487 0 -6 -44z"/>
</g>
</svg>
